<?xml version="1.0" standalone="no"?>
<!DOCTYPE svg PUBLIC "-//W3C//DTD SVG 1.1//EN" "http://www.w3.org/Graphics/SVG/1.1/DTD/svg11.dtd" >
<svg xmlns="http://www.w3.org/2000/svg">
<metadata></metadata>
<defs>
<font id="villa_didotoutline" horiz-adv-x="1105" >
<font-face units-per-em="2048" ascent="1536" descent="-512" />
<missing-glyph horiz-adv-x="409" />
<glyph horiz-adv-x="2048" />
<glyph horiz-adv-x="2048" />
<glyph unicode="&#xd;" horiz-adv-x="2048" />
<glyph unicode=" "  horiz-adv-x="409" />
<glyph unicode="&#x09;" horiz-adv-x="409" />
<glyph unicode="&#xa0;" horiz-adv-x="409" />
<glyph unicode="!" horiz-adv-x="755" d="M82 1167q0 127 88 197t213 70q77 0 141 -26t107 -86.5t43 -147.5q0 -60 -25 -117.5t-61.5 -105t-73.5 -95t-64 -108t-30 -123.5q0 -18 -11.5 -29.5t-29.5 -11.5q-16 0 -27.5 12.5t-13.5 28.5q-4 63 -32.5 122.5t-65 106t-72.5 93.5t-61 103.5t-25 116.5zM125 254 q0 107 74 181.5t180 74.5q107 0 181.5 -74.5t74.5 -181.5q0 -106 -74.5 -180t-181.5 -74q-106 0 -180 74t-74 180zM166 1167q0 -46 18.5 -89.5t46.5 -79.5t57 -71t55 -79.5t36 -89.5q8 46 33 90.5t54.5 80.5t58.5 72t48 79.5t19 88.5q0 94 -60.5 139.5t-146.5 45.5 q-99 0 -159 -49t-60 -138zM203 252q0 -72 52 -124t124 -52q73 0 124.5 52t51.5 124q0 74 -51.5 125t-124.5 51q-72 0 -124 -51.5t-52 -124.5z" />
<glyph unicode="&#x22;" horiz-adv-x="1353" d="M82 1184q0 119 83 184.5t200 65.5q114 0 194 -62t80 -182q0 -57 -23.5 -111t-58 -98.5t-69.5 -89.5t-60.5 -101t-28.5 -116q0 -17 -11 -28t-28 -11q-15 0 -25.5 11.5t-12.5 27.5q-4 59 -30 114.5t-60.5 100t-68.5 88.5t-57.5 97.5t-23.5 109.5zM174 1182q0 -40 16 -78.5 t40.5 -70.5t49.5 -63t48 -70.5t32 -78.5q8 48 39.5 98t63.5 84.5t58 83t26 97.5q0 81 -53 120t-129 39q-87 0 -139 -42.5t-52 -118.5zM715 1184q0 119 82.5 184.5t199.5 65.5q73 0 133.5 -24.5t101 -81.5t40.5 -138q0 -57 -23.5 -111t-58 -98.5t-69.5 -89.5t-60.5 -101 t-28.5 -116q0 -17 -11 -28t-28 -11q-15 0 -26 12t-13 27q-4 59 -30 114.5t-60.5 100t-68.5 88.5t-57 97.5t-23 109.5zM807 1182q0 -40 16 -78.5t40.5 -70.5t49.5 -63t48 -70.5t32 -78.5q8 48 39.5 98t63.5 84.5t58 83t26 97.5q0 81 -53.5 120t-129.5 39q-87 0 -138.5 -42 t-51.5 -119z" />
<glyph unicode="$" horiz-adv-x="1476" d="M139 995q0 169 109 281t303 151v265q0 16 13.5 25t27.5 9q15 0 28 -9t13 -25v-252q78 8 127 8q19 0 65 -4v248q0 16 13.5 25t27.5 9q15 0 28 -9t13 -25v-260q116 -24 254 -103v119q0 18 11.5 29.5t29.5 11.5q17 0 29 -13t12 -30v-385q0 -18 -12 -30t-31 -11 q-18 1 -28.5 13t-10.5 30v162q-92 68 -173 103.5t-167 35.5q-59 0 -103.5 -18t-68.5 -48t-35.5 -62.5t-11.5 -66.5q0 -47 14 -83.5t35.5 -62.5t67.5 -53t88 -46t119 -50q87 -35 148 -66t113.5 -71t83.5 -85t48.5 -104t17.5 -132q0 -163 -119 -273t-311 -147v-193 q-1 -21 -13 -32t-28 -11q-15 0 -28 11.5t-13 31.5v183q-49 -6 -96 -6q-34 0 -96 4v-181q-1 -21 -13 -32t-28 -11q-15 0 -28 11.5t-13 31.5v189q-173 27 -295 129v-94q0 -15 -13 -27t-28 -12q-17 0 -31 12t-14 27v407q0 18 13.5 30.5t31.5 12.5q16 0 28.5 -12.5t12.5 -30.5 v-198q69 -79 171 -124.5t210 -45.5q128 0 199 38.5t71 114.5q0 54 -24 90.5t-99 77.5t-217 88q-428 142 -428 520zM223 995q0 -323 377 -442q212 -67 301.5 -139.5t89.5 -194.5q0 -87 -53 -133q51 12 102 36.5t101.5 63t82 99t31.5 131.5q0 143 -82 225t-276 158 q-82 32 -133.5 55.5t-104 56.5t-80.5 67.5t-45.5 82.5t-17.5 108q0 54 22 106.5t62 80.5q-184 -31 -280.5 -123t-96.5 -238z" />
<glyph unicode="'" horiz-adv-x="720" d="M82 1184q0 119 83 184.5t200 65.5q114 0 194 -62t80 -182q0 -57 -23.5 -111t-58 -98.5t-69.5 -89.5t-60.5 -101t-28.5 -116q0 -17 -11 -28t-28 -11q-15 0 -25.5 11.5t-12.5 27.5q-4 59 -30 114.5t-60.5 100t-68.5 88.5t-57.5 97.5t-23.5 109.5zM174 1182q0 -40 16 -78.5 t40.5 -70.5t49.5 -63t48 -70.5t32 -78.5q8 48 39.5 98t63.5 84.5t58 83t26 97.5q0 81 -53 120t-129 39q-87 0 -139 -42.5t-52 -118.5z" />
<glyph unicode="+" d="M143 614q0 15 11.5 28t31.5 13h326v326q0 20 12.5 31.5t28.5 11.5q15 0 28 -11.5t13 -31.5v-326h334q16 0 25.5 -13.5t9.5 -27.5q0 -15 -9.5 -28t-25.5 -13h-334v-333q0 -16 -13.5 -25.5t-27.5 -9.5q-15 0 -28 9.5t-13 25.5v333h-326q-20 0 -31.5 12.5t-11.5 28.5z" />
<glyph unicode="," horiz-adv-x="669" d="M82 252q0 106 74 180t178 74q105 0 179.5 -75t74.5 -191q0 -52 -1 -86.5t-5.5 -87t-13.5 -88.5t-26 -79t-41 -72t-60.5 -53.5t-82.5 -35.5q-55 -14 -170 -14q-19 0 -31 11t-12 29q0 19 12 30t31 11q109 0 154 11q147 38 162 258q-22 -34 -71 -54t-99 -20q-104 0 -178 74 t-74 178zM162 250q0 -70 51 -121t121 -51q72 0 122 50.5t50 121.5q0 72 -50 122t-122 50q-71 0 -121.5 -50t-50.5 -122z" />
<glyph unicode="-" d="M143 614q0 15 11.5 28t31.5 13h742q16 0 25.5 -13.5t9.5 -27.5q0 -15 -9.5 -28t-25.5 -13h-742q-21 1 -32 13t-11 28z" />
<glyph unicode="." horiz-adv-x="669" d="M82 254q0 107 74 181.5t180 74.5q107 0 181.5 -74.5t74.5 -181.5q0 -106 -74.5 -180t-181.5 -74q-106 0 -180 74t-74 180zM162 252q0 -70 52 -122t122 -52q72 0 123 51.5t51 122.5q0 72 -51 123t-123 51q-71 0 -122.5 -51t-51.5 -123z" />
<glyph unicode="0" horiz-adv-x="1712" d="M102 700q0 240 92.5 409.5t260 254t397.5 84.5q232 0 405 -92.5t264 -258.5t91 -384q0 -338 -197.5 -534.5t-537.5 -196.5q-378 0 -576.5 188.5t-198.5 529.5zM184 700q0 -131 31.5 -235.5t83 -172.5t125.5 -116t150 -71.5t165 -34.5q-60 89 -92.5 255.5t-32.5 385.5 q0 464 109 647q-80 -11 -150 -34t-143.5 -72t-126 -119t-86 -181.5t-33.5 -251.5zM698 711q0 -120 8.5 -219t22 -164t31 -115t34.5 -76.5t35 -43t29 -21t19 -4.5q56 0 98.5 174.5t42.5 447.5q0 122 -8 224t-20.5 170t-29.5 121t-33 82.5t-32.5 48t-27.5 24.5t-19 6 q-17 0 -36 -19t-39.5 -67.5t-37 -120t-27 -188t-10.5 -260.5zM975 1358q60 -95 94.5 -270.5t34.5 -397.5q0 -443 -107 -618q251 33 392 200t141 441q0 270 -148.5 440.5t-406.5 204.5z" />
<glyph unicode="1" horiz-adv-x="1294" d="M143 1192q0 17 12 29t29 12q176 0 364 63.5t341 178.5q16 8 24 8q17 0 29 -12t12 -29v-1360h156q18 0 29.5 -11.5t11.5 -29.5q0 -17 -12 -29t-29 -12h-860q-17 0 -29 12t-12 29q0 18 11.5 29.5t29.5 11.5h168v1092q-125 -23 -219 -23q-56 0 -56 41zM500 82h372v1280 q-172 -114 -372 -168v-1112z" />
<glyph unicode="2" horiz-adv-x="1533" d="M106 37q0 70 9.5 157.5t23.5 137.5q26 84 74.5 147.5t105 102t119.5 70.5t121 62.5t104.5 68t75 97t29.5 140.5q1 72 -33 145.5t-96.5 123.5t-132.5 50q-71 0 -125 -26q114 3 188 -60t74 -163q0 -107 -65 -168.5t-181 -61.5q-105 0 -170 67.5t-65 172.5q0 89 48 157 t126.5 105.5t165 55.5t178.5 18q295 0 476 -120t181 -323q0 -87 -34.5 -156.5t-90.5 -115.5t-138 -80.5t-166 -53.5t-187 -32q-238 -31 -297 -59q53 16 148.5 8t178.5 -24.5t168 -33t117 -16.5q25 0 48.5 2t56 10t56 21.5t40 38.5t16.5 59q0 16 12 28.5t29 12.5q20 0 41 -27 q34 -48 55 -119t21 -122q0 -160 -104.5 -275.5t-259.5 -115.5q-101 0 -196 29.5t-166 71t-135 83t-127.5 71t-119.5 29.5q-110 0 -110 -188q0 -51 -41 -51q-46 0 -46 49zM199 264q37 43 104 43t137 -29t134.5 -70.5t133 -83t157.5 -70.5t182 -29q89 0 155.5 48t96.5 116.5 t30 144.5q0 78 -24 143q-20 -58 -89.5 -93.5t-179.5 -35.5q-93 0 -280.5 51.5t-274.5 51.5q-65 0 -122 -15.5t-104.5 -59.5t-55.5 -112zM242 1100q0 -72 42.5 -116t112.5 -44q79 0 122.5 38.5t43.5 111.5q0 74 -43 112.5t-123 38.5q-65 0 -110 -40.5t-45 -100.5zM307 487 q35 31 86.5 55t125 42.5t111 26t115.5 20.5q96 16 170.5 36t140 49t108.5 66t67 87.5t24 111.5q0 85 -34.5 152t-92 109.5t-137.5 70.5t-164 39.5t-178 11.5q81 -35 140 -137t59 -207q0 -257 -232 -367q-41 -20 -94 -42t-80 -34t-63.5 -35t-71.5 -55z" />
<glyph unicode="3" horiz-adv-x="1396" d="M82 350q0 92 64.5 157.5t156.5 65.5q91 0 156 -65.5t65 -157.5q0 -90 -55.5 -146t-134.5 -59q41 -24 99 -40.5t95 -16.5q59 0 106.5 33.5t75 85.5t42 109.5t14.5 111.5q0 91 -17.5 157t-46.5 95q-82 -8 -133 -8q-16 0 -28.5 11.5t-12.5 29.5q0 27 27 37q38 15 64 34 t48 49.5t33 77.5t11 111q0 122 -82 204.5t-203 82.5q-37 0 -57 -4q68 -5 115.5 -61t47.5 -132q0 -83 -57.5 -140t-144.5 -57q-85 0 -146 58t-61 139q0 75 56.5 142t148.5 112q152 76 358 76q267 0 405 -100.5t138 -286.5q0 -97 -57 -177t-171 -122q148 -27 231 -113t83 -221 q0 -64 -15.5 -121t-59 -116t-113 -100.5t-187 -68t-270.5 -26.5q-120 0 -232 28q-112 31 -213 101q-143 101 -143 231zM164 350q0 -57 40.5 -95t100.5 -38t98.5 37.5t38.5 95.5t-41 100t-98 42q-58 0 -98.5 -41.5t-40.5 -100.5zM205 1112q0 -47 36.5 -81t88.5 -34t86.5 32.5 t34.5 82.5q0 52 -36 87.5t-87 35.5t-87 -35.5t-36 -87.5zM555 1354q104 -20 171 -117t67 -215q0 -164 -74 -256q219 30 323.5 102t104.5 187q0 305 -461 305q-90 0 -131 -6zM688 72q269 0 407 89.5t138 260.5q0 130 -99.5 200t-273.5 70q-51 0 -65 -2q53 -83 53 -244 q0 -112 -42 -214.5t-118 -159.5z" />
<glyph unicode="4" horiz-adv-x="1495" d="M23 379q0 20 14 31q76 68 154 196.5t132.5 254.5t102.5 259.5t67.5 198.5t24.5 84q5 14 16.5 22.5t24.5 8.5h516q17 0 29 -13t12 -30q-3 -146 -95 -337.5t-243 -365.5t-313 -268h225v112q0 34 33 41q117 25 237.5 112.5t182.5 191.5q12 18 37 18q41 0 41 -37v-424l213 2 q17 0 29 -12t12 -29t-12 -29t-29 -12l-213 -2v-270h127q17 0 29 -12t12 -29t-12 -29t-29 -12h-807q-17 0 -30 12t-13 29t13 29t30 12h149v256h-627q-16 0 -28 11.5t-12 29.5zM162 420h71q84 0 221 91t267 241q134 153 216 310t95 290h-442q-53 -186 -135 -387 q-145 -365 -293 -545zM772 82h367v653q-72 -80 -172 -143.5t-195 -89.5v-420z" />
<glyph unicode="5" horiz-adv-x="1396" d="M82 344q0 89 64 153t155 64q89 0 153 -64t64 -153q0 -74 -44.5 -130t-119.5 -71q42 -20 97 -33.5t92 -13.5q58 0 104 27.5t72.5 70.5t40.5 90.5t14 92.5q0 104 -50.5 183t-124.5 117t-157 38q-4 0 -27.5 0.5t-35.5 0t-35 -2t-38.5 -5t-34 -11t-31.5 -17.5q-11 -8 -25 -8 q-17 0 -29 12t-12 29t10 67q15 98 15 230q0 117 -13 264q-2 20 -7 44t-5 32q0 42 107 71t233 29q107 0 190 -19t144 -38t113 -19q109 0 182 88q15 15 31 15q32 0 43 -33q34 -107 34 -215q0 -148 -78.5 -228.5t-216.5 -80.5q-111 0 -200 43t-191 135q-82 73 -143 103t-117 30 q-23 0 -33 -2q9 -162 9 -232q0 -104 -11 -200q151 77 406 77q306 0 472.5 -120.5t166.5 -333.5q0 -205 -169.5 -316.5t-483.5 -111.5q-249 0 -433 121q-147 96 -147 231zM164 344q0 -55 40 -92t99 -37t96 36t37 93q0 56 -40 95.5t-95 39.5q-57 0 -97 -39.5t-40 -95.5z M260 1325q4 -8 4 -22q24 6 43 6q83 0 157.5 -40.5t156.5 -115.5q88 -81 163 -120.5t172 -39.5q213 0 213 232q0 56 -16 131q-79 -64 -188 -64q-53 0 -105.5 12t-92 26t-108.5 26t-151 12q-149 0 -248 -43zM506 784q159 -20 254.5 -132.5t95.5 -278.5q0 -86 -42 -177.5 t-118 -121.5q263 4 400 94.5t137 251.5q0 182 -145 277.5t-412 95.5q-73 0 -170 -9z" />
<glyph unicode="6" horiz-adv-x="1613" d="M102 729q0 115 25.5 213t69 170.5t104.5 130t129.5 95t146 62.5t152 35.5t150.5 10.5q522 0 522 -293q0 -100 -72.5 -163.5t-185.5 -63.5q-103 0 -178.5 67t-75.5 164q0 74 43 127.5t92 69.5q-31 10 -86 10q-65 0 -114 -59t-76 -157.5t-40.5 -211.5t-13.5 -236 q34 57 133 87t238 30q64 0 123 -12.5t114.5 -41t96.5 -71t65.5 -108t24.5 -146.5q0 -132 -86 -235t-236.5 -159t-337.5 -56q-341 0 -534 196t-193 545zM184 729q0 -279 133.5 -447.5t380.5 -203.5q-86 146 -86 633q0 227 43.5 406.5t128.5 242.5q-97 -8 -183.5 -35.5 t-163.5 -79t-132.5 -122.5t-88 -172t-32.5 -222zM700 453q0 -68 12.5 -150.5t41.5 -152.5t67 -70q50 0 82.5 93.5t32.5 209.5q0 68 -15 135.5t-45 115.5t-67 48q-42 0 -75.5 -63t-33.5 -166zM909 721q48 -45 78.5 -139t30.5 -199q0 -91 -19.5 -176.5t-52.5 -130.5 q207 24 334 120t127 240q0 58 -16 106t-40 78t-57.5 53t-64 34.5t-64.5 18t-53 8t-35 1.5q-91 0 -168 -14zM971 1165q0 -68 50 -112.5t122 -44.5q80 0 128 41.5t48 113.5q0 64 -43.5 114t-126.5 50q-75 0 -126.5 -47t-51.5 -115z" />
<glyph unicode="7" horiz-adv-x="1368" d="M20 1212q0 132 39 238q9 23 35 23q21 0 33 -15q49 -54 93.5 -77t98.5 -23q48 0 91.5 12.5t76.5 27.5t105 27.5t168 12.5q91 0 160.5 -13t107.5 -31t65.5 -36.5t52 -31.5t50.5 -13q31 0 50.5 22t19.5 54q0 43 41 43t41 -43q0 -41 -3.5 -72t-17.5 -73.5t-38 -79.5 t-69 -81.5t-108 -87.5q-184 -129 -184 -329q0 -77 34.5 -218t34.5 -198q0 -114 -88.5 -189t-232.5 -75q-137 0 -225.5 93t-88.5 251q0 161 52.5 278.5t144.5 214.5q94 100 220 174.5t259 106.5q58 13 109.5 45.5t77.5 79.5q-22 -11 -44.5 -12.5t-53.5 2.5t-48 4 q-77 0 -176.5 -62t-238.5 -176q-67 -55 -153 -87t-171 -32q-144 0 -232 92.5t-88 253.5zM102 1223q0 -129 60 -202t178 -73q69 0 141 26t131 75q147 120 254.5 184.5t194.5 60.5q-55 62 -301 62q-88 0 -156.5 -12.5t-102.5 -27.5t-82 -27.5t-100 -12.5q-111 0 -200 78 q-17 -76 -17 -131zM444 332q0 -123 64 -193.5t168 -70.5q61 0 113.5 18t89 60.5t36.5 103.5q0 43 -34.5 185.5t-34.5 232.5q0 95 34.5 180t123.5 168q-84 -27 -161.5 -69t-151 -104.5t-128 -136.5t-87 -171t-32.5 -203z" />
<glyph unicode="8" horiz-adv-x="1562" d="M102 365q0 102 62 180.5t178 120.5q-111 80 -163 166t-52 190q0 209 171 317.5t490 108.5q269 0 429.5 -102t160.5 -273q0 -84 -38.5 -152.5t-110.5 -111.5q119 -76 175 -164.5t56 -206.5q0 -224 -183.5 -341t-510.5 -117q-300 0 -482 106.5t-182 278.5zM182 365 q0 -114 106.5 -186t289.5 -105q-35 21 -62 74t-27 120q0 71 20.5 143.5t61.5 123.5q-20 12 -67 36.5t-68 36.5q-107 -21 -180.5 -84t-73.5 -159zM207 1022q0 -107 71.5 -190t223.5 -168q58 -32 182 -90t156 -76q101 -58 145.5 -117.5t44.5 -140.5q0 -46 -18 -92.5t-49 -71.5 q415 59 415 362q0 220 -291 357q-43 20 -158.5 75t-180.5 84q-108 49 -146.5 112t-38.5 153q0 41 16.5 81.5t45.5 59.5q-206 -25 -312 -111t-106 -227zM569 276q0 -101 59 -155.5t140 -54.5q88 0 135 51.5t47 122.5q0 46 -22 82t-88 79q-57 38 -187 97q-40 -29 -62 -92.5 t-22 -129.5zM645 1219q0 -89 46 -135t196 -111q25 33 40 88t15 110q0 92 -39 143.5t-115 51.5q-63 0 -103 -41t-40 -106zM961 940l184 -82q71 27 112 85.5t41 129.5q0 110 -91 182t-246 101q61 -48 61 -187q0 -131 -61 -229z" />
<glyph unicode="9" horiz-adv-x="1593" d="M104 995q0 133 86.5 236.5t236.5 159t337 55.5q341 0 534 -196t193 -545q0 -138 -38.5 -255t-107.5 -201.5t-164.5 -143.5t-209.5 -88t-242 -29q-276 0 -420.5 77.5t-144.5 210.5q0 100 78.5 164t195.5 64q108 0 186 -68t78 -172q0 -69 -40.5 -119t-83.5 -65q44 -6 88 -6 q63 0 110.5 55.5t73.5 150t38.5 204.5t12.5 235q-33 -72 -136.5 -105.5t-232.5 -33.5q-150 0 -276 96q-152 114 -152 319zM186 997q0 -86 32.5 -155t84.5 -109.5t111 -61t118 -20.5q109 0 162 33q-56 45 -86 145.5t-30 221.5q0 94 17.5 178t51.5 129q-204 -22 -332.5 -120 t-128.5 -241zM246 276q0 -69 61 -120.5t137 -51.5q87 0 132 44.5t45 117.5q0 67 -52.5 111.5t-130.5 44.5q-85 0 -138.5 -41t-53.5 -105zM659 1051q0 -124 36.5 -226t86.5 -102q43 0 71 70t30 168q3 157 -28.5 275t-82.5 118q-50 0 -81.5 -93.5t-31.5 -209.5zM817 76 q122 11 225.5 53.5t187 116.5t131.5 192t48 267q0 280 -135 448.5t-383 202.5q56 -94 75 -248.5t19 -398.5q0 -216 -47 -400.5t-121 -232.5z" />
<glyph unicode=":" horiz-adv-x="669" d="M82 254q0 107 74 181.5t180 74.5q107 0 181.5 -74.5t74.5 -181.5q0 -106 -74.5 -180t-181.5 -74q-106 0 -180 74t-74 180zM82 930q0 107 74 181.5t180 74.5q107 0 181.5 -74.5t74.5 -181.5q0 -106 -74.5 -180t-181.5 -74q-106 0 -180 74t-74 180zM162 252q0 -70 52 -122 t122 -52q72 0 123 51.5t51 122.5q0 72 -51 123t-123 51q-71 0 -122.5 -51t-51.5 -123zM162 928q0 -70 52 -122t122 -52q72 0 123 51.5t51 122.5q0 72 -51 123t-123 51q-71 0 -122.5 -51t-51.5 -123z" />
<glyph unicode=";" horiz-adv-x="669" d="M82 252q0 106 74 180t178 74q105 0 179.5 -75t74.5 -191q0 -52 -1 -86.5t-5.5 -87t-13.5 -88.5t-26 -79t-41 -72t-60.5 -53.5t-82.5 -35.5q-55 -14 -170 -14q-19 0 -31 11t-12 29q0 19 12 30t31 11q109 0 154 11q147 38 162 258q-22 -34 -71 -54t-99 -20q-104 0 -178 74 t-74 178zM82 930q0 107 74 181.5t180 74.5q107 0 181.5 -74.5t74.5 -181.5q0 -106 -74.5 -180t-181.5 -74q-106 0 -180 74t-74 180zM162 250q0 -70 51 -121t121 -51q72 0 122 50.5t50 121.5q0 72 -50 122t-122 50q-71 0 -121.5 -50t-50.5 -122zM162 928q0 -70 52 -122 t122 -52q72 0 123 51.5t51 122.5q0 72 -51 123t-123 51q-71 0 -122.5 -51t-51.5 -123z" />
<glyph unicode="=" d="M143 471q0 15 11.5 28t31.5 13h742q16 0 25.5 -13.5t9.5 -27.5q0 -15 -9.5 -28t-25.5 -13h-742q-21 1 -32 13t-11 28zM143 758q0 15 11.5 28t31.5 13h742q16 0 25.5 -13.5t9.5 -27.5q0 -15 -9.5 -28t-25.5 -13h-742q-21 1 -32 13t-11 28z" />
<glyph unicode="?" horiz-adv-x="1259" d="M76 1163q0 283 506 283q104 0 201 -18.5t183.5 -57t138.5 -107.5t52 -161q0 -77 -41 -139t-102 -100t-133.5 -73t-135.5 -60.5t-107 -60t-48 -73.5q-3 -35 -41 -35q-19 0 -30 11t-11 30q0 74 57.5 254t57.5 262q0 55 -35.5 113.5t-98.5 85.5q22 -18 37 -58t15 -88 q0 -88 -64.5 -160.5t-171.5 -72.5q-93 0 -161 61t-68 164zM143 1163q0 -75 48 -117t116 -42q84 0 125 50.5t41 119.5q0 76 -43.5 120.5t-112.5 44.5q-77 0 -125.5 -44.5t-48.5 -131.5zM338 254q0 107 74 181.5t180 74.5q107 0 181.5 -74.5t74.5 -181.5q0 -106 -74.5 -180 t-181.5 -74q-106 0 -180 74t-74 180zM416 252q0 -72 52 -124t124 -52q73 0 124.5 52t51.5 124q0 74 -51 125t-125 51q-72 0 -124 -51.5t-52 -124.5zM528 1368q88 -35 131 -94.5t43 -157.5q0 -69 -13.5 -126.5t-39.5 -132.5t-39 -128q25 29 72.5 55.5t97 45.5t103.5 45.5 t95 54.5t68 73t27 101q0 86 -74 148.5t-181 91t-228 28.5q-22 0 -62 -4z" />
<glyph unicode="A" horiz-adv-x="2054" d="M20 41q0 18 14 29.5t32 11.5h233l418 1270h-219q-17 0 -29 12t-12 29t12 29t29 12h831q32 0 41 -27l428 -1325h195q19 0 31 -11t12 -30q0 -17 -12 -29t-31 -12h-901q-20 0 -34 12t-14 29q0 18 13.5 29.5t34.5 11.5h131l-121 377h-590l-123 -377h234q18 0 31.5 -12.5 t13.5 -30.5q0 -17 -13.5 -28t-31.5 -11h-557q-18 0 -32 11.5t-14 29.5zM541 547h532l-256 805h-12zM909 1352l406 -1270h395l-410 1270h-391z" />
<glyph unicode="B" horiz-adv-x="1916" d="M102 41q0 19 12 30t31 11h179v1270h-150q-19 0 -31 11t-12 28t12 30t29 13h1075q245 0 371.5 -99.5t126.5 -281.5q0 -118 -58.5 -202t-158.5 -124q128 -35 207.5 -125t79.5 -219q0 -94 -35 -163t-113 -119.5t-209 -75.5t-317 -25h-996q-19 0 -31 12t-12 29zM412 82h405 v1270h-405v-1270zM901 84q182 3 270.5 81t88.5 232q0 140 -71.5 205.5t-189.5 65.5h-98v-584zM901 762h86q133 0 188.5 72.5t55.5 199.5q0 140 -68.5 229t-195.5 89h-66v-590zM1163 1352q71 -35 111.5 -122t40.5 -196q0 -93 -27 -166.5t-76 -105.5h103q153 0 249.5 83.5 t96.5 209.5q0 56 -17.5 101.5t-44.5 76t-69.5 53t-83 34.5t-94.5 19.5t-95.5 9.5t-93.5 3zM1190 82q85 0 159 8t146.5 29t123.5 54t82.5 86.5t31.5 123.5q0 139 -105 212t-293 73h-114q122 -72 122 -271q0 -231 -153 -315z" />
<glyph unicode="C" horiz-adv-x="1548" d="M98 684q0 125 27 231t74 183t112 138t138 100.5t156.5 65t162.5 36t160 10.5q281 0 428 -88v67q0 16 11 27.5t28 11.5q20 0 32.5 -11.5t12.5 -27.5v-294q0 -39 -45 -39q-17 0 -28 11.5t-11 27.5v131q-126 96 -291 96q-124 0 -221 -80t-150 -222t-53 -321 q0 -168 61 -319.5t171 -246.5t241 -95q145 0 272 117v143q0 19 12 30t32 11q18 0 29 -11.5t11 -29.5v-311q0 -15 -10.5 -27t-25.5 -12q-21 0 -34.5 11.5t-13.5 27.5v61q-86 -59 -196.5 -85t-265.5 -26q-159 0 -293 34.5t-232 97.5t-166 151t-101.5 195.5t-33.5 230.5z M174 694q0 -135 41.5 -244t110.5 -180t164 -120t195.5 -70.5t211.5 -24.5q-152 88 -246 277t-94 397q0 218 68.5 385t193.5 252q-94 -9 -182 -36t-173.5 -80.5t-148.5 -127t-102 -184t-39 -244.5z" />
<glyph unicode="D" horiz-adv-x="1861" d="M102 1391q0 17 13 30t30 13h873q378 0 569 -173t191 -538q0 -159 -42.5 -284t-116.5 -206.5t-180 -134.5t-225.5 -75.5t-261.5 -22.5h-788q-20 0 -32.5 11.5t-12.5 29.5q0 19 12.5 30t32.5 11h125v1270h-144q-18 0 -30.5 11t-12.5 28zM377 82h387v1270h-387v-1270z M850 86q114 15 202 103.5t135.5 229.5t47.5 312q0 178 -43 312.5t-130.5 215.5t-211.5 93v-1266zM1059 94q305 14 470 172.5t165 452.5q0 308 -153.5 462.5t-469.5 166.5q121 -70 184.5 -235.5t63.5 -381.5q0 -222 -67.5 -386t-192.5 -251z" />
<glyph unicode="E" horiz-adv-x="1456" d="M102 1391q2 18 14.5 30.5t30.5 12.5h1162q19 0 30 -13.5t11 -31.5v-310q0 -17 -12 -29t-29 -12q-19 0 -31 12t-12 29v273h-480v-609h177v179q0 19 13.5 31t33.5 12q17 0 29 -12t12 -31v-447q0 -18 -11.5 -30.5t-29.5 -14.5q-20 0 -33.5 12t-13.5 31v182h-177v-573h504 v289q0 18 12.5 30.5t30.5 12.5q17 0 29 -12t12 -31v-330q0 -18 -11.5 -29.5t-29.5 -11.5h-1181q-18 0 -30.5 11t-12.5 28q0 18 12.5 30.5t30.5 12.5h120v1270h-127q-18 0 -30.5 11t-12.5 28zM356 82h344v1270h-344v-1270z" />
<glyph unicode="F" horiz-adv-x="1472" d="M102 1393q0 17 12 29t31 12h1205q17 0 29 -12t12 -29v-312q0 -17 -12 -29t-29 -12t-29 12t-12 29v271h-486v-607h191v177q0 20 11.5 32.5t29.5 12.5t30.5 -12.5t12.5 -32.5v-469q0 -17 -13 -29t-30 -12t-29 11t-12 28v206h-191v-575h224q18 0 30.5 -12.5t12.5 -30.5 q0 -17 -12.5 -28t-30.5 -11h-897q-19 0 -31.5 11t-12.5 28q0 19 12.5 31t31.5 12h141v1270h-146q-19 0 -31 10.5t-12 30.5zM375 82h360v1270h-360v-1270z" />
<glyph unicode="G" horiz-adv-x="1751" d="M98 713q0 225 110.5 392t298 252t425.5 85q170 0 303 -42t209 -116l-2 131q0 16 11 28.5t28 12.5q15 0 28 -13t13 -28l6 -311q0 -17 -13.5 -29t-29.5 -12q-17 0 -28 11t-11 28l-2 74q-181 178 -373 178q-120 0 -215 -91t-143.5 -227.5t-48.5 -283.5q0 -144 45 -274.5 t124 -211t171 -80.5q43 0 69 9v477h-174q-17 0 -28 12t-11 31q0 17 11 29t28 12h735q15 0 27 -12t12 -29q0 -18 -12 -30.5t-27 -12.5h-65v-633q0 -15 -12 -27t-29 -12h-414q-17 0 -28 11.5t-13 27.5v49q-51 -44 -138 -73t-181 -29q-138 0 -259 53t-208.5 146.5t-138 230.5 t-50.5 297zM180 713q0 -137 36 -249t94.5 -184.5t135 -122t153.5 -70.5t155 -21q119 0 231 53q-115 8 -208 96.5t-144 229.5t-51 303q0 225 77.5 386t212.5 236q-99 0 -197 -26.5t-187.5 -81.5t-158 -131.5t-109 -184.5t-40.5 -233zM1157 82h328v590h-328v-590z" />
<glyph unicode="H" horiz-adv-x="2125" d="M102 1393q0 19 12 30t31 11h723q18 0 31.5 -11.5t13.5 -29.5q0 -17 -13.5 -29t-31.5 -12h-59v-578h508v578h-105q-17 0 -30 12t-13 29q0 18 12.5 29.5t30.5 11.5h752q18 0 29.5 -11.5t11.5 -29.5q0 -17 -12 -29t-29 -12h-98v-1270h116q17 0 29 -12t12 -31q0 -17 -12 -28 t-29 -11h-757q-18 0 -30.5 11t-12.5 28q0 18 12.5 30.5t30.5 12.5h92v606h-508v-606h80q20 0 32.5 -12t12.5 -31q0 -17 -12.5 -28t-32.5 -11h-733q-18 2 -30.5 13t-12.5 28q0 18 12.5 29.5t30.5 11.5h112v1270h-123q-19 0 -31 12t-12 29zM352 82h373v1270h-373v-1270z M1403 82h379v1270h-379v-1270z" />
<glyph unicode="I" horiz-adv-x="1058" d="M102 39q0 19 12 31t31 12h119v1270h-104q-18 0 -30.5 11t-12.5 28t13 30t30 13h725q17 0 29 -13t12 -30t-12 -28t-29 -11h-92v-1270h122q18 0 29.5 -11.5t11.5 -29.5q0 -17 -12 -29t-29 -12h-770q-19 0 -31 11t-12 28zM348 82h357v1270h-357v-1270z" />
<glyph unicode="J" horiz-adv-x="1015" d="M-20 -295q0 19 12.5 31t27.5 12q37 1 67 8t62.5 28.5t54.5 56.5t36 97q14 59 14 135v11v1268h-107q-17 0 -27.5 11.5t-10.5 29.5q0 19 10.5 30t27.5 11h725q20 0 33 -11t13 -30q0 -16 -13.5 -28.5t-32.5 -12.5h-86v-1274q-2 -224 -126 -366t-336 -142q-68 0 -155 22.5 t-142 57.5q-47 29 -47 55zM143 -311q84 -41 187 -41q171 0 272 119t103 311v1274h-367v-1266v-10q0 -321 -195 -387z" />
<glyph unicode="K" horiz-adv-x="1896" d="M100 39q0 19 12 31t29 12h103v1270h-101q-17 0 -29 12t-12 29t12 29t29 12h717q17 0 30 -12t13 -29q0 -18 -12.5 -29.5t-30.5 -11.5h-108v-602l604 602h-178q-17 0 -29 13t-12 30t12 28t29 11h510q17 0 29 -11t12 -28t-12 -30t-29 -13h-207l-351 -348l586 -922h113 q21 0 34 -11.5t13 -29.5q0 -17 -13.5 -29t-33.5 -12h-823q-19 0 -31 12t-12 29q0 19 12 30t31 11h90l-344 549v-549h90q17 0 29 -12t12 -31q0 -17 -12 -28t-29 -11h-701q-17 0 -29 11t-12 28zM326 82h344v1270h-344v-1270zM813 690l381 -608h424l-547 862z" />
<glyph unicode="L" horiz-adv-x="1499" d="M102 1393q0 17 12 29t29 12h777q18 0 29.5 -11.5t11.5 -29.5t-11.5 -29.5t-29.5 -11.5h-132v-1270h41q89 0 185 55t172.5 140t132.5 190.5t72 204.5q3 17 14 27t25 10q22 0 35.5 -12t13.5 -31v-625q0 -17 -14.5 -29t-32.5 -12h-1266q-17 0 -29 12t-12 29q0 18 11.5 29.5 t29.5 11.5h98v1270h-121q-17 0 -29 12t-12 29zM348 82h359v1270h-359v-1270zM1081 82h310v358q-38 -106 -126.5 -207t-183.5 -151z" />
<glyph unicode="M" horiz-adv-x="2338" d="M102 39q0 19 12 31t31 12h156v1270h-117q-20 0 -32.5 11.5t-12.5 29.5t12.5 29.5t32.5 11.5h617q31 -3 39 -23l346 -563l270 563q13 23 37 23h702q17 0 29 -12t12 -29t-12 -29t-29 -12h-133v-1270h129q17 0 29 -12t12 -31q0 -17 -12 -28t-29 -11h-835q-17 0 -29 11 t-12 28q0 19 12 31t29 12h129v1184l-490 -1012q-4 -10 -16 -17.5t-23 -7.5q-21 0 -34 23l-537 946v-1116h225q18 0 29.5 -11.5t11.5 -31.5q0 -17 -12 -28t-29 -11h-465q-19 0 -31 11t-12 28zM393 1352l561 -985l187 387l-363 598h-385zM1569 82h405v1270h-405v-1270z" />
<glyph unicode="N" horiz-adv-x="1927" d="M80 1391q0 19 12 31t29 12h661q26 0 39 -19l754 -1165v1102h-227q-18 2 -29.5 13t-11.5 28q0 18 11.5 29.5t29.5 11.5h452q20 0 33.5 -13.5t13.5 -31.5q0 -17 -13.5 -27t-35.5 -10h-135v-1311q0 -41 -41 -41h-496q-25 0 -34 18l-752 1188v-1124h209q17 0 29 -12t12 -29 t-12 -29t-29 -12h-414q-17 0 -29 12t-12 29q0 18 10.5 29.5t28.5 11.5h123v1270h-135q-17 0 -29 11t-12 28zM346 1352l803 -1270h428l-815 1270h-416z" />
<glyph unicode="O" horiz-adv-x="1763" d="M94 727q0 160 63 298t170 232.5t251 148.5t303 54q371 0 582.5 -193.5t211.5 -561.5q0 -217 -107.5 -384.5t-293 -256.5t-416.5 -89q-219 0 -392 91t-272.5 263t-99.5 398zM178 727q0 -288 167 -468t443 -202q-95 100 -149.5 306t-54.5 471q0 373 114 522 q-233 -55 -376.5 -225t-143.5 -404zM670 838q0 -206 34.5 -383t98.5 -285.5t143 -108.5q49 0 84 45.5t53 123.5t25.5 160.5t7.5 176.5q0 178 -34 362t-97 312.5t-135 128.5q-78 0 -129 -148.5t-51 -383.5zM989 1374q101 -111 158 -344.5t57 -468.5q0 -319 -92 -471 q218 64 348.5 227t130.5 385q0 307 -156.5 477t-445.5 195z" />
<glyph unicode="P" horiz-adv-x="1775" d="M115 39q0 19 12 31t29 12h114v1270h-100q-19 0 -31 11t-12 28q0 18 12.5 30.5t30.5 12.5h938q119 0 217 -27.5t174.5 -84t119 -151.5t42.5 -221q0 -84 -21 -153.5t-55.5 -117.5t-82 -84.5t-96.5 -58t-105 -35t-100.5 -18t-88.5 -4.5h-283v-397h129q18 0 29.5 -11.5 t11.5 -29.5t-12 -30q-11 -11 -26 -11h-3h-802q-17 0 -29 11t-12 28zM356 82h389v1270h-389v-1270zM829 567q62 2 120 27.5t104.5 71.5t75 119t28.5 161q0 192 -88 300q-86 106 -234 106h-6v-785zM1055 565h69q33 0 68 3.5t81 14t86.5 27t81.5 46.5t70 69.5t47.5 97.5 t18.5 129q0 98 -33 173t-81.5 117t-115 68t-123 34t-116.5 8h-49q83 -39 132.5 -149.5t49.5 -246.5q0 -128 -47.5 -237t-138.5 -154z" />
<glyph unicode="Q" horiz-adv-x="1744" d="M92 725q0 158 62 294t168 229.5t249.5 146.5t302.5 53q380 0 583.5 -196.5t203.5 -565.5q0 -137 -55.5 -266.5t-163 -232.5t-248.5 -152q243 -20 487 -209q171 -134 315 -196t283 -62q138 0 310 59q8 4 14 4q15 0 26 -13t11 -28q0 -21 -23 -34q-37 -18 -130.5 -64 t-129.5 -63t-111.5 -51t-118.5 -47.5t-105.5 -32t-116 -25t-109.5 -6.5q-153 0 -288.5 74.5t-268.5 216.5q-26 27 -98 110.5t-122 138t-112.5 106t-101.5 58.5q-210 9 -371.5 104.5t-251.5 264t-90 385.5zM178 719q0 -288 176.5 -476t452.5 -200q-103 97 -164 312.5 t-61 475.5q0 192 31 321.5t81 193.5q-234 -52 -375 -220t-141 -407zM662 811q0 -194 35.5 -364.5t96 -275t130.5 -114.5q3 0 9 -1t9 -1q47 2 81 49t52.5 126t26.5 165.5t8 184.5q0 189 -37 370t-100 295.5t-131 114.5q-74 0 -127 -151t-53 -398zM938 -18q27 -12 61 -41.5 t56 -53.5t64.5 -72.5t56.5 -64.5q59 -66 93.5 -103.5t84 -87.5t84 -77t80.5 -58t86.5 -46t89.5 -25t102 -10q86 0 158.5 10.5t142 36t110.5 44.5t115 58q-19 -2 -39 -2q-118 0 -279 64q-188 75 -376 213q-178 132 -322 178q-121 38 -297 38q-35 0 -71 -1zM973 1366 q97 -66 159 -298t62 -505q0 -159 -27.5 -290t-70.5 -195q217 62 348 224t131 380q0 312 -157 488t-445 196z" />
<glyph unicode="R" horiz-adv-x="1998" d="M94 1391q0 17 13 30t30 13h891q297 0 458 -115t161 -311q0 -88 -33.5 -165.5t-88.5 -131t-121.5 -89.5t-135.5 -49q172 -49 272 -165q180 -209 293 -209q48 0 94 43q12 12 31 12q18 0 29.5 -13.5t11.5 -29.5q0 -13 -8 -25q-99 -119 -253 -188.5t-284 -69.5 q-73 0 -129.5 17.5t-102.5 56.5t-82 89t-75 126q-88 172 -148 249t-129 77v-461h113q18 0 29.5 -11.5t11.5 -29.5q0 -17 -12 -29t-29 -12h-747q-17 0 -29 12t-12 29q0 18 11.5 29.5t29.5 11.5h82v1270h-99q-18 0 -30.5 11t-12.5 28zM322 82h380v1270h-380v-1270zM788 625 q161 4 248.5 108.5t87.5 286.5q0 158 -82 245t-227 87h-27v-727zM938 553q62 -24 205 -299q25 -50 42.5 -79.5t45.5 -65.5t57 -55t71.5 -32.5t94.5 -13.5q86 0 176.5 30t159.5 87q-125 6 -317 227q-93 106 -207.5 150.5t-278.5 50.5h-49zM1044 1350q164 -106 164 -332 q0 -132 -41.5 -234.5t-119.5 -152.5h55q58 0 120 14t123.5 45t109.5 74t78 106.5t30 137.5q0 163 -140.5 252.5t-378.5 89.5z" />
<glyph unicode="S" horiz-adv-x="1476" d="M139 995q0 212 167.5 332.5t453.5 120.5q196 0 401 -119v119q0 18 11.5 29.5t29.5 11.5q17 0 29 -13t12 -30v-385q0 -18 -12 -30t-31 -11q-18 1 -28.5 13t-10.5 30v162q-92 68 -173 103.5t-167 35.5q-59 0 -103.5 -18t-68.5 -48t-35.5 -62.5t-11.5 -66.5q0 -47 14 -83.5 t35.5 -62.5t67.5 -53t88 -46t119 -50q87 -35 148 -66t113.5 -71t83.5 -85t48.5 -104t17.5 -132q0 -134 -84 -234.5t-220.5 -151t-303.5 -50.5q-157 0 -268.5 32.5t-204.5 108.5v-94q0 -15 -13 -27t-28 -12q-17 0 -31 12t-14 27v407q0 18 13.5 30.5t31.5 12.5 q16 0 28.5 -12.5t12.5 -30.5v-198q69 -79 171 -124.5t210 -45.5q128 0 199 38.5t71 114.5q0 54 -24 90.5t-99 77.5t-217 88q-428 142 -428 520zM223 995q0 -323 377 -442q212 -67 301.5 -139.5t89.5 -194.5q0 -87 -53 -133q51 12 102 36.5t101.5 63t82 99t31.5 131.5 q0 143 -82 225t-276 158q-82 32 -133.5 55.5t-104 56.5t-80.5 67.5t-45.5 82.5t-17.5 108q0 54 22 106.5t62 80.5q-184 -31 -280.5 -123t-96.5 -238z" />
<glyph unicode="T" horiz-adv-x="1454" d="M20 1090v301q0 17 12 30t29 13h1325q21 0 33.5 -12.5t12.5 -30.5l2 -318q0 -18 -12.5 -29.5t-32.5 -11.5q-19 0 -31 12t-12 29v279h-361v-1270h139q17 0 29 -12t12 -31q0 -17 -12 -28t-29 -11h-817q-18 0 -29.5 11.5t-11.5 29.5t11.5 29.5t29.5 11.5h148v1270h-353v-262 q0 -17 -12 -29t-29 -12t-29 12t-12 29zM539 82h360v1270h-360v-1270z" />
<glyph unicode="U" horiz-adv-x="1779" d="M102 1393q0 18 12.5 29.5t32.5 11.5h748q19 0 31 -12t12 -29q0 -19 -12 -30t-31 -11h-92v-899q0 -144 77 -237t205 -93q156 0 246 111.5t90 277.5v840h-188q-18 0 -29.5 10.5t-11.5 30.5q0 18 11.5 29.5t29.5 11.5h440q19 0 31 -12t12 -29q0 -41 -41 -41h-170v-840 q0 -135 -43 -235.5t-123.5 -162.5t-189 -92t-244.5 -30q-334 0 -503 145q-166 142 -166 446v11v758h-89q-20 0 -32.5 11t-12.5 30zM319 594q0 -268 138.5 -393t439.5 -125h23q-94 51 -149.5 152.5t-55.5 224.5v899h-396v-758z" />
<glyph unicode="V" horiz-adv-x="1751" d="M4 1391q0 19 12 31t31 12h778q17 0 29 -12t12 -31t-12 -29t-31 -10h-121l406 -795l371 795h-254q-18 0 -29.5 11.5t-11.5 29.5q0 20 11.5 30.5t29.5 10.5h487q41 0 41 -41q0 -18 -11.5 -29.5t-29.5 -11.5h-137l-635 -1358q-5 -9 -17 -16t-24 -7q-29 0 -39 21l-729 1360 h-86q-41 0 -41 39zM229 1352l668 -1243l164 350v2l-457 891h-375z" />
<glyph unicode="W" horiz-adv-x="2451" d="M6 1391q0 18 13.5 30.5t31.5 12.5h778q20 0 32.5 -12t12.5 -31q0 -39 -47 -39h-82l277 -662l342 686q12 23 35 23q27 0 37 -21l397 -678l240 652h-291q-18 0 -29.5 10.5t-11.5 30.5q0 17 12 29t29 12h612q17 0 30 -12t13 -29q0 -19 -12.5 -30t-30.5 -11h-227l-502 -1342 q-3 -11 -14 -18.5t-23 -7.5q-24 0 -37 22l-430 774l-385 -770q-9 -22 -37 -22q-29 0 -39 24l-571 1340h-80q-19 0 -31 10t-12 29zM223 1352l520 -1219l232 463l-324 756h-428zM1208 872l412 -743l176 473l-391 664z" />
<glyph unicode="X" horiz-adv-x="1757" d="M6 1393q0 18 12.5 29.5t32.5 11.5h815q19 0 31 -12t12 -29q0 -20 -12 -30.5t-31 -10.5h-88l289 -471l299 471h-205q-21 0 -34 11.5t-13 31.5q0 17 13.5 28t33.5 11h455q17 0 29 -11t12 -28q0 -20 -11.5 -31.5t-29.5 -11.5h-150l-350 -549l459 -721h121q17 0 29 -12 t12 -31q0 -17 -12 -28t-29 -11h-871q-17 0 -30 12t-13 29q0 18 12.5 29.5t30.5 11.5h119l-317 520l-338 -520h215q20 0 32.5 -11t12.5 -30q0 -18 -12.5 -29.5t-32.5 -11.5h-438q-19 0 -31 12t-12 29q0 19 12 30t31 11h124l388 598l-408 672h-121q-19 0 -31 10.5t-12 30.5z M270 1352l774 -1270h424l-796 1270h-402z" />
<glyph unicode="Y" horiz-adv-x="1679" d="M8 1391q0 18 12.5 30.5t32.5 12.5h774q18 0 30.5 -12.5t12.5 -30.5t-12 -28.5t-31 -10.5h-108l354 -539l338 539h-147q-17 0 -29 11t-12 28q0 19 12 31t29 12h372q17 0 29 -12t12 -31q0 -39 -41 -39h-118l-394 -627v-643h109q17 0 28 -12t11 -31q0 -17 -12 -28t-29 -11 h-703q-17 0 -29 12t-12 29q0 18 11.5 29.5t29.5 11.5h127v483l-491 787h-111q-45 0 -45 39zM264 1352l471 -752q6 -9 6 -22v-496h295v627l-424 643h-348z" />
<glyph unicode="Z" horiz-adv-x="1497" d="M84 41q0 14 4 20l684 1291h-561v-293q0 -18 -11.5 -29.5t-29.5 -11.5q-20 0 -32.5 11.5t-12.5 29.5v332q0 18 12.5 30.5t32.5 12.5h1171q14 0 27.5 -13t13.5 -30q0 -10 -6 -19l-686 -1290h639v459q0 17 12 29t29 12t29 -12t12 -29v-500q0 -17 -13 -29t-30 -12h-1243 q-18 0 -29.5 11.5t-11.5 29.5zM199 82h393l678 1270h-404z" />
<glyph unicode="`" horiz-adv-x="909" d="M102 1561q0 15 11 28t26 13h398q25 0 43 -27l221 -346q6 -9 6 -25q0 -17 -12 -29t-29 -12h-330q-13 0 -24 11l-297 356q-13 13 -13 31zM231 1520l228 -275h233l-174 275h-287z" />
<glyph unicode="&#xa1;" horiz-adv-x="755" d="M84 260q0 60 25 117.5t61.5 105t73.5 95t64 108t30 123.5q0 18 11.5 29.5t29.5 11.5q16 0 27.5 -12.5t13.5 -28.5q4 -63 32.5 -122.5t65 -106.5t72.5 -94t61 -103.5t25 -116.5q0 -85 -43.5 -147t-110 -90.5t-147.5 -28.5q-77 0 -141 26t-107 86.5t-43 147.5zM125 1178 q0 107 74 181.5t180 74.5q107 0 181.5 -74.5t74.5 -181.5q0 -106 -74.5 -180t-181.5 -74q-106 0 -180 74t-74 180zM166 264q0 -94 60.5 -139t146.5 -45q99 0 159 48.5t60 137.5q0 46 -18.5 89.5t-46.5 79.5t-57 71.5t-55 80t-36 89.5q-8 -46 -33 -90.5t-54.5 -80.5 t-58.5 -72.5t-48 -80t-19 -88.5zM203 1176q0 -72 52 -124.5t124 -52.5q73 0 124.5 52.5t51.5 124.5q0 74 -51.5 125t-124.5 51q-72 0 -124 -51.5t-52 -124.5z" />
<glyph unicode="&#xa8;" horiz-adv-x="1396" d="M205 1321q0 91 63 154t152 63q91 0 154 -63t63 -154q0 -89 -63 -152t-154 -63q-89 0 -152 63t-63 152zM283 1321q0 -58 40 -97.5t97 -39.5t97 39.5t40 97.5q0 56 -40 95.5t-97 39.5t-97 -39.5t-40 -95.5zM760 1321q0 91 63 154t152 63q91 0 154 -63t63 -154 q0 -89 -63 -152t-154 -63q-89 0 -152 63t-63 152zM838 1321q0 -58 40 -97.5t97 -39.5t97 39.5t40 97.5q0 56 -40 95.5t-97 39.5t-97 -39.5t-40 -95.5z" />
<glyph unicode="&#xad;" d="M143 614q0 15 11.5 28t31.5 13h742q16 0 25.5 -13.5t9.5 -27.5q0 -15 -9.5 -28t-25.5 -13h-742q-21 1 -32 13t-11 28z" />
<glyph unicode="&#xb1;" d="M143 41q0 15 11.5 28t31.5 13h742q16 0 25.5 -13.5t9.5 -27.5q0 -15 -9.5 -28t-25.5 -13h-742q-21 1 -32 13t-11 28zM143 614q0 15 11.5 28t31.5 13h326v326q0 20 12.5 31.5t28.5 11.5q15 0 28 -11.5t13 -31.5v-326h334q16 0 25.5 -13.5t9.5 -27.5q0 -15 -9.5 -28 t-25.5 -13h-334v-333q0 -16 -13.5 -25.5t-27.5 -9.5q-15 0 -28 9.5t-13 25.5v333h-326q-20 0 -31.5 12.5t-11.5 28.5z" />
<glyph unicode="&#xb4;" horiz-adv-x="909" d="M102 1204q0 14 7 25l221 346q18 27 43 27h397q15 -1 26 -13.5t11 -27.5q0 -19 -12 -31l-297 -356q-11 -11 -25 -11h-330q-17 0 -29 12t-12 29zM217 1245h234l227 275h-287z" />
<glyph unicode="&#xbf;" horiz-adv-x="1259" d="M76 338q0 77 41 139t102 100t133.5 73t135.5 60.5t107 60t48 73.5q3 35 41 35q19 0 30 -11t11 -30q0 -74 -57.5 -254t-57.5 -262q0 -55 35 -113.5t98 -85.5q-22 18 -36.5 57t-14.5 88q0 55 26.5 107.5t82 89.5t127.5 37q93 0 161 -61.5t68 -164.5q0 -282 -506 -282 q-104 0 -201 18.5t-183.5 57t-138.5 107.5t-52 161zM160 336q0 -86 74 -148.5t181 -91t228 -28.5q22 0 62 4q-88 35 -131.5 94.5t-43.5 157.5q0 69 13.5 127t40 132.5t39.5 127.5q-25 -29 -72.5 -55.5t-97 -45.5t-103.5 -45.5t-95 -54.5t-68 -73t-27 -101zM395 1178 q0 107 74 181.5t180 74.5q107 0 181.5 -74.5t74.5 -181.5q0 -106 -74.5 -180t-181.5 -74q-106 0 -180 74t-74 180zM473 1176q0 -72 52 -124.5t124 -52.5q73 0 124.5 52.5t51.5 124.5q0 74 -51.5 125t-124.5 51q-72 0 -124 -51.5t-52 -124.5zM760 266q0 -77 43 -121.5 t112 -44.5q77 0 126 44.5t49 131.5q0 75 -48 117.5t-116 42.5q-84 0 -125 -50.5t-41 -119.5z" />
<glyph unicode="&#xc0;" horiz-adv-x="2054" d="M20 41q0 18 14 29.5t32 11.5h233l418 1270h-219q-17 0 -29 12t-12 29t12 29t29 12h831q32 0 41 -27l428 -1325h195q19 0 31 -11t12 -30q0 -17 -12 -29t-31 -12h-901q-20 0 -34 12t-14 29q0 18 13.5 29.5t34.5 11.5h131l-121 377h-590l-123 -377h234q18 0 31.5 -12.5 t13.5 -30.5q0 -17 -13.5 -28t-31.5 -11h-557q-18 0 -32 11.5t-14 29.5zM541 547h532l-256 805h-12zM571 1970q0 15 11 28t26 13h398q26 0 43 -26l221 -347q6 -9 6 -24q0 -17 -12 -29t-29 -12h-330q-14 0 -24 10l-297 356q-13 13 -13 31zM700 1929l228 -274h233l-174 274 h-287zM909 1352l406 -1270h395l-410 1270h-391z" />
<glyph unicode="&#xc1;" horiz-adv-x="2054" d="M20 41q0 18 14 29.5t32 11.5h233l418 1270h-219q-17 0 -29 12t-12 29t12 29t29 12h831q32 0 41 -27l428 -1325h195q19 0 31 -11t12 -30q0 -17 -12 -29t-31 -12h-901q-20 0 -34 12t-14 29q0 18 13.5 29.5t34.5 11.5h131l-121 377h-590l-123 -377h234q18 0 31.5 -12.5 t13.5 -30.5q0 -17 -13.5 -28t-31.5 -11h-557q-18 0 -32 11.5t-14 29.5zM541 547h532l-256 805h-12zM674 1614q0 15 6 24l221 347q17 26 43 26h397q15 -1 26 -13.5t11 -27.5q0 -19 -12 -31l-297 -356q-10 -10 -25 -10h-329q-17 0 -29 12t-12 29zM788 1655h234l227 274h-286z M909 1352l406 -1270h395l-410 1270h-391z" />
<glyph unicode="&#xc2;" horiz-adv-x="2054" d="M20 41q0 18 14 29.5t32 11.5h233l418 1270h-219q-17 0 -29 12t-12 29t12 29t29 12h831q32 0 41 -27l428 -1325h195q19 0 31 -11t12 -30q0 -17 -12 -29t-31 -12h-901q-20 0 -34 12t-14 29q0 18 13.5 29.5t34.5 11.5h131l-121 377h-590l-123 -377h234q18 0 31.5 -12.5 t13.5 -30.5q0 -17 -13.5 -28t-31.5 -11h-557q-18 0 -32 11.5t-14 29.5zM455 1614q0 15 6 24l221 347q17 26 43 26h430q26 0 43 -26l221 -347q6 -9 6 -24q0 -17 -12 -29t-29 -12h-329q-15 0 -25 10l-90 109l-90 -109q-10 -10 -25 -10h-329q-17 0 -29 12t-12 29zM541 547h532 l-256 805h-12zM569 1655h234l102 123q14 14 35 14q20 0 37 -20l100 -117h234l-174 274h-394zM909 1352l406 -1270h395l-410 1270h-391z" />
<glyph unicode="&#xc4;" horiz-adv-x="2054" d="M20 41q0 18 14 29.5t32 11.5h233l418 1270h-219q-17 0 -29 12t-12 29t12 29t29 12h831q32 0 41 -27l428 -1325h195q19 0 31 -11t12 -30q0 -17 -12 -29t-31 -12h-901q-20 0 -34 12t-14 29q0 18 13.5 29.5t34.5 11.5h131l-121 377h-590l-123 -377h234q18 0 31.5 -12.5 t13.5 -30.5q0 -17 -13.5 -28t-31.5 -11h-557q-18 0 -32 11.5t-14 29.5zM451 1731q0 91 63 154t152 63q91 0 154 -63t63 -154q0 -89 -63 -152t-154 -63q-89 0 -152 63t-63 152zM528 1731q0 -58 40.5 -98t97.5 -40t97 40t40 98q0 56 -40 95.5t-97 39.5t-97.5 -39.5 t-40.5 -95.5zM541 547h532l-256 805h-12zM909 1352l406 -1270h395l-410 1270h-391zM1006 1731q0 91 63 154t152 63q91 0 154 -63t63 -154q0 -89 -63 -152t-154 -63q-89 0 -152 63t-63 152zM1083 1731q0 -58 40.5 -98t97.5 -40t97 40t40 98q0 56 -40 95.5t-97 39.5 t-97.5 -39.5t-40.5 -95.5z" />
<glyph unicode="&#xc6;" horiz-adv-x="2213" d="M20 41q0 18 14 29.5t32 11.5h233l457 1270h-258q-17 0 -29 12t-12 29t12 29t29 12h1568q19 0 30 -13.5t11 -31.5v-310q0 -17 -12 -29t-29 -12q-19 0 -31 12t-12 29v273h-479v-609h176v179q0 19 13.5 31t33.5 12q17 0 29 -12t12 -31v-447q0 -18 -11.5 -30.5t-29.5 -14.5 q-20 0 -33.5 12t-13.5 31v182h-176v-573h504v289q0 18 12.5 30.5t30.5 12.5q17 0 29 -12t12 -31v-330q0 -18 -11.5 -29.5t-29.5 -11.5h-1182q-18 0 -30.5 11t-12.5 28q0 18 12.5 30.5t30.5 12.5h121v377h-506l-135 -377h234q18 0 31.5 -12.5t13.5 -30.5q0 -17 -13.5 -28 t-31.5 -11h-557q-18 0 -32 11.5t-14 29.5zM553 547h477v805h-186zM1114 82h344v1270h-344v-1270z" />
<glyph unicode="&#xc8;" horiz-adv-x="1456" d="M102 1391q2 18 14.5 30.5t30.5 12.5h1162q19 0 30 -13.5t11 -31.5v-310q0 -17 -12 -29t-29 -12q-19 0 -31 12t-12 29v273h-480v-609h177v179q0 19 13.5 31t33.5 12q17 0 29 -12t12 -31v-447q0 -18 -11.5 -30.5t-29.5 -14.5q-20 0 -33.5 12t-13.5 31v182h-177v-573h504 v289q0 18 12.5 30.5t30.5 12.5q17 0 29 -12t12 -31v-330q0 -18 -11.5 -29.5t-29.5 -11.5h-1181q-18 0 -30.5 11t-12.5 28q0 18 12.5 30.5t30.5 12.5h120v1270h-127q-18 0 -30.5 11t-12.5 28zM356 82h344v1270h-344v-1270zM375 1970q0 15 11 28t26 13h397q26 0 43 -26 l221 -347q6 -9 6 -24q0 -17 -12 -29t-29 -12h-329q-15 0 -25 10l-297 356q-12 12 -12 31zM504 1929l227 -274h234l-174 274h-287z" />
<glyph unicode="&#xc9;" horiz-adv-x="1456" d="M102 1391q2 18 14.5 30.5t30.5 12.5h1162q19 0 30 -13.5t11 -31.5v-310q0 -17 -12 -29t-29 -12q-19 0 -31 12t-12 29v273h-480v-609h177v179q0 19 13.5 31t33.5 12q17 0 29 -12t12 -31v-447q0 -18 -11.5 -30.5t-29.5 -14.5q-20 0 -33.5 12t-13.5 31v182h-177v-573h504 v289q0 18 12.5 30.5t30.5 12.5q17 0 29 -12t12 -31v-330q0 -18 -11.5 -29.5t-29.5 -11.5h-1181q-18 0 -30.5 11t-12.5 28q0 18 12.5 30.5t30.5 12.5h120v1270h-127q-18 0 -30.5 11t-12.5 28zM356 82h344v1270h-344v-1270zM416 1614q0 15 6 24l221 347q17 26 43 26h397 q15 -1 26 -13.5t11 -27.5q0 -19 -12 -31l-297 -356q-10 -10 -25 -10h-329q-17 0 -29 12t-12 29zM530 1655h234l227 274h-286z" />
<glyph unicode="&#xca;" horiz-adv-x="1456" d="M102 1391q2 18 14.5 30.5t30.5 12.5h1162q19 0 30 -13.5t11 -31.5v-310q0 -17 -12 -29t-29 -12q-19 0 -31 12t-12 29v273h-480v-609h177v179q0 19 13.5 31t33.5 12q17 0 29 -12t12 -31v-447q0 -18 -11.5 -30.5t-29.5 -14.5q-20 0 -33.5 12t-13.5 31v182h-177v-573h504 v289q0 18 12.5 30.5t30.5 12.5q17 0 29 -12t12 -31v-330q0 -18 -11.5 -29.5t-29.5 -11.5h-1181q-18 0 -30.5 11t-12.5 28q0 18 12.5 30.5t30.5 12.5h120v1270h-127q-18 0 -30.5 11t-12.5 28zM262 1614q0 15 6 24l221 347q17 26 43 26h431q26 0 43 -26l221 -347q6 -9 6 -24 q0 -17 -12 -29t-29 -12h-330q-14 0 -24 10l-90 109l-91 -109q-10 -10 -24 -10h-330q-17 0 -29 12t-12 29zM356 82h344v1270h-344v-1270zM377 1655h233l103 123q14 14 35 14q19 0 36 -20l101 -117h233l-174 274h-393z" />
<glyph unicode="&#xcb;" horiz-adv-x="1456" d="M102 1391q2 18 14.5 30.5t30.5 12.5h1162q19 0 30 -13.5t11 -31.5v-310q0 -17 -12 -29t-29 -12q-19 0 -31 12t-12 29v273h-480v-609h177v179q0 19 13.5 31t33.5 12q17 0 29 -12t12 -31v-447q0 -18 -11.5 -30.5t-29.5 -14.5q-20 0 -33.5 12t-13.5 31v182h-177v-573h504 v289q0 18 12.5 30.5t30.5 12.5q17 0 29 -12t12 -31v-330q0 -18 -11.5 -29.5t-29.5 -11.5h-1181q-18 0 -30.5 11t-12.5 28q0 18 12.5 30.5t30.5 12.5h120v1270h-127q-18 0 -30.5 11t-12.5 28zM254 1731q0 91 63 154t152 63q91 0 154 -63t63 -154q0 -89 -63 -152t-154 -63 q-89 0 -152 63t-63 152zM332 1731q0 -58 40 -98t97 -40t97 40t40 98q0 56 -40 95.5t-97 39.5t-97 -39.5t-40 -95.5zM356 82h344v1270h-344v-1270zM809 1731q0 91 63 154t152 63q91 0 154 -63t63 -154q0 -89 -63 -152t-154 -63q-89 0 -152 63t-63 152zM887 1731q0 -58 40 -98 t97 -40t97 40t40 98q0 56 -40 95.5t-97 39.5t-97 -39.5t-40 -95.5z" />
<glyph unicode="&#xcc;" horiz-adv-x="1058" d="M102 39q0 19 12 31t31 12h119v1270h-104q-18 0 -30.5 11t-12.5 28t13 30t30 13h725q17 0 29 -13t12 -30t-12 -28t-29 -11h-92v-1270h122q18 0 29.5 -11.5t11.5 -29.5q0 -17 -12 -29t-29 -12h-770q-19 0 -31 11t-12 28zM115 1970q0 15 11 28t26 13h397q26 0 43 -26 l221 -347q6 -9 6 -24q0 -17 -12 -29t-29 -12h-329q-15 0 -25 10l-297 356q-12 12 -12 31zM244 1929l227 -274h234l-175 274h-286zM348 82h357v1270h-357v-1270z" />
<glyph unicode="&#xcd;" horiz-adv-x="1058" d="M102 39q0 19 12 31t31 12h119v1270h-104q-18 0 -30.5 11t-12.5 28t13 30t30 13h725q17 0 29 -13t12 -30t-12 -28t-29 -11h-92v-1270h122q18 0 29.5 -11.5t11.5 -29.5q0 -17 -12 -29t-29 -12h-770q-19 0 -31 11t-12 28zM279 1614q0 15 6 24l221 347q17 26 43 26h397 q15 -1 26 -13.5t11 -27.5q0 -19 -12 -31l-297 -356q-10 -10 -25 -10h-330q-17 0 -28.5 12t-11.5 29zM348 82h357v1270h-357v-1270zM393 1655h234l227 274h-287z" />
<glyph unicode="&#xce;" horiz-adv-x="1058" d="M45 1614q0 15 6 24l221 347q17 26 43 26h430q26 0 43 -26l222 -347q6 -9 6 -24q0 -17 -12 -29t-29 -12h-330q-14 0 -24 10l-91 109l-90 -109q-10 -10 -24 -10h-330q-17 0 -29 12t-12 29zM102 39q0 19 12 31t31 12h119v1270h-104q-18 0 -30.5 11t-12.5 28t13 30t30 13h725 q17 0 29 -13t12 -30t-12 -28t-29 -11h-92v-1270h122q18 0 29.5 -11.5t11.5 -29.5q0 -17 -12 -29t-29 -12h-770q-19 0 -31 11t-12 28zM160 1655h233l103 123q14 14 34 14t37 -20l101 -117h233l-174 274h-393zM348 82h357v1270h-357v-1270z" />
<glyph unicode="&#xcf;" horiz-adv-x="1058" d="M37 1731q0 91 63 154t152 63q91 0 154 -63t63 -154q0 -89 -63 -152t-154 -63q-89 0 -152 63t-63 152zM102 39q0 19 12 31t31 12h119v1270h-104q-18 0 -30.5 11t-12.5 28t13 30t30 13h725q17 0 29 -13t12 -30t-12 -28t-29 -11h-92v-1270h122q18 0 29.5 -11.5t11.5 -29.5 q0 -17 -12 -29t-29 -12h-770q-19 0 -31 11t-12 28zM115 1731q0 -58 40 -98t97 -40t97 40t40 98q0 56 -40 95.5t-97 39.5t-97 -39.5t-40 -95.5zM348 82h357v1270h-357v-1270zM592 1731q0 91 63 154t152 63q91 0 154 -63t63 -154q0 -89 -63 -152t-154 -63q-89 0 -152 63 t-63 152zM670 1731q0 -58 40 -98t97 -40t97 40t40 98q0 56 -40 95.5t-97 39.5t-97 -39.5t-40 -95.5z" />
<glyph unicode="&#xd0;" horiz-adv-x="1861" d="M98 723q0 15 11.5 28t31.5 13h148v588h-144q-18 0 -30.5 11t-12.5 28t13 30t30 13h873q378 0 569 -173t191 -538q0 -159 -42.5 -284t-116.5 -206.5t-180 -134.5t-225.5 -75.5t-261.5 -22.5h-788q-20 0 -32.5 11.5t-12.5 29.5q0 19 12.5 30t32.5 11h125v600h-148 q-20 0 -31.5 12.5t-11.5 28.5zM377 82h387v1270h-387v-1270zM850 86q114 15 202 103.5t135.5 229.5t47.5 312q0 178 -43 312.5t-130.5 215.5t-211.5 93v-588h135q16 0 25.5 -13.5t9.5 -27.5q0 -15 -9.5 -28t-25.5 -13h-135v-596zM1059 94q305 14 470 172.5t165 452.5 q0 308 -153.5 462.5t-469.5 166.5q121 -70 184.5 -235.5t63.5 -381.5q0 -222 -67.5 -386t-192.5 -251z" />
<glyph unicode="&#xd2;" horiz-adv-x="1763" d="M94 727q0 160 63 298t170 232.5t251 148.5t303 54q371 0 582.5 -193.5t211.5 -561.5q0 -217 -107.5 -384.5t-293 -256.5t-416.5 -89q-219 0 -392 91t-272.5 263t-99.5 398zM178 727q0 -288 167 -468t443 -202q-95 100 -149.5 306t-54.5 471q0 373 114 522 q-233 -55 -376.5 -225t-143.5 -404zM446 1970q0 15 11 28t26 13h398q26 0 43 -26l221 -347q6 -9 6 -24q0 -17 -12 -29t-29 -12h-330q-14 0 -24 10l-297 356q-13 13 -13 31zM575 1929l228 -274h233l-174 274h-287zM670 838q0 -206 34.5 -383t98.5 -285.5t143 -108.5 q49 0 84 45.5t53 123.5t25.5 160.5t7.5 176.5q0 178 -34 362t-97 312.5t-135 128.5q-78 0 -129 -148.5t-51 -383.5zM989 1374q101 -111 158 -344.5t57 -468.5q0 -319 -92 -471q218 64 348.5 227t130.5 385q0 307 -156.5 477t-445.5 195z" />
<glyph unicode="&#xd3;" horiz-adv-x="1763" d="M94 727q0 160 63 298t170 232.5t251 148.5t303 54q371 0 582.5 -193.5t211.5 -561.5q0 -217 -107.5 -384.5t-293 -256.5t-416.5 -89q-219 0 -392 91t-272.5 263t-99.5 398zM178 727q0 -288 167 -468t443 -202q-95 100 -149.5 306t-54.5 471q0 373 114 522 q-233 -55 -376.5 -225t-143.5 -404zM631 1614q0 15 6 24l221 347q17 26 43 26h397q15 -1 26 -13.5t11 -27.5q0 -19 -12 -31l-297 -356q-10 -10 -25 -10h-329q-17 0 -29 12t-12 29zM670 838q0 -206 34.5 -383t98.5 -285.5t143 -108.5q49 0 84 45.5t53 123.5t25.5 160.5 t7.5 176.5q0 178 -34 362t-97 312.5t-135 128.5q-78 0 -129 -148.5t-51 -383.5zM745 1655h234l227 274h-286zM989 1374q101 -111 158 -344.5t57 -468.5q0 -319 -92 -471q218 64 348.5 227t130.5 385q0 307 -156.5 477t-445.5 195z" />
<glyph unicode="&#xd4;" horiz-adv-x="1763" d="M94 727q0 160 63 298t170 232.5t251 148.5t303 54q371 0 582.5 -193.5t211.5 -561.5q0 -217 -107.5 -384.5t-293 -256.5t-416.5 -89q-219 0 -392 91t-272.5 263t-99.5 398zM178 727q0 -288 167 -468t443 -202q-95 100 -149.5 306t-54.5 471q0 373 114 522 q-233 -55 -376.5 -225t-143.5 -404zM395 1614q0 15 6 24l222 347q17 26 43 26h430q26 0 43 -26l221 -347q6 -9 6 -24q0 -17 -12 -29t-29 -12h-330q-14 0 -24 10l-90 109l-90 -109q-10 -10 -25 -10h-330q-17 0 -29 12t-12 29zM510 1655h233l103 123q14 14 35 14q20 0 37 -20 l100 -117h233l-174 274h-393zM670 838q0 -206 34.5 -383t98.5 -285.5t143 -108.5q49 0 84 45.5t53 123.5t25.5 160.5t7.5 176.5q0 178 -34 362t-97 312.5t-135 128.5q-78 0 -129 -148.5t-51 -383.5zM989 1374q101 -111 158 -344.5t57 -468.5q0 -319 -92 -471 q218 64 348.5 227t130.5 385q0 307 -156.5 477t-445.5 195z" />
<glyph unicode="&#xd6;" horiz-adv-x="1763" d="M94 727q0 160 63 298t170 232.5t251 148.5t303 54q371 0 582.5 -193.5t211.5 -561.5q0 -217 -107.5 -384.5t-293 -256.5t-416.5 -89q-219 0 -392 91t-272.5 263t-99.5 398zM178 727q0 -288 167 -468t443 -202q-95 100 -149.5 306t-54.5 471q0 373 114 522 q-233 -55 -376.5 -225t-143.5 -404zM387 1731q0 91 63 154t152 63q91 0 154 -63t63 -154q0 -89 -63 -152t-154 -63q-89 0 -152 63t-63 152zM465 1731q0 -58 40 -98t97 -40t97 40t40 98q0 56 -40 95.5t-97 39.5t-97 -39.5t-40 -95.5zM670 838q0 -206 34.5 -383t98.5 -285.5 t143 -108.5q49 0 84 45.5t53 123.5t25.5 160.5t7.5 176.5q0 178 -34 362t-97 312.5t-135 128.5q-78 0 -129 -148.5t-51 -383.5zM942 1731q0 91 63 154t152 63q91 0 154 -63t63 -154q0 -89 -63 -152t-154 -63q-89 0 -152 63t-63 152zM989 1374q101 -111 158 -344.5t57 -468.5 q0 -319 -92 -471q218 64 348.5 227t130.5 385q0 307 -156.5 477t-445.5 195zM1020 1731q0 -58 40 -98t97 -40t97 40t40 98q0 56 -40 95.5t-97 39.5t-97 -39.5t-40 -95.5z" />
<glyph unicode="&#xd8;" horiz-adv-x="1763" d="M94 727q0 160 63 298t170 232.5t251 148.5t303 54q205 0 372 -63l86 145q8 12 26 13.5t26 -5.5q14 -9 19.5 -22t-1.5 -29l-82 -137q167 -89 257.5 -255.5t90.5 -401.5q0 -217 -107.5 -384.5t-293 -256.5t-416.5 -89q-165 0 -315 56l-117 -197q-23 -36 -55 -16 q-14 9 -19 23t4 34l113 191q-176 93 -275.5 263.5t-99.5 397.5zM178 727q0 -288 167 -468t443 -202q-95 100 -149.5 306t-54.5 471q0 373 114 522q-233 -55 -376.5 -225t-143.5 -404zM670 838q0 -194 32 -375l351 592q-39 143 -91.5 229t-111.5 86q-78 0 -129 -148.5 t-51 -383.5zM729 348q38 -133 94 -210t123 -77q49 0 84 45.5t53 123.5t25.5 160.5t7.5 176.5q0 178 -37 373zM989 1374q101 -111 158 -344.5t57 -468.5q0 -319 -92 -471q218 64 348.5 227t130.5 385q0 307 -156.5 477t-445.5 195z" />
<glyph unicode="&#xd9;" horiz-adv-x="1779" d="M102 1393q0 18 12.5 29.5t32.5 11.5h748q19 0 31 -12t12 -29q0 -19 -12 -30t-31 -11h-92v-899q0 -144 77 -237t205 -93q156 0 246 111.5t90 277.5v840h-188q-18 0 -29.5 10.5t-11.5 30.5q0 18 11.5 29.5t29.5 11.5h440q19 0 31 -12t12 -29q0 -41 -41 -41h-170v-840 q0 -135 -43 -235.5t-123.5 -162.5t-189 -92t-244.5 -30q-334 0 -503 145t-166 457v758h-89q-20 0 -32.5 11t-12.5 30zM319 594q0 -268 138.5 -393t439.5 -125h23q-94 51 -149.5 152.5t-55.5 224.5v899h-396v-758zM537 1970q0 15 10.5 28t25.5 13h398q26 0 43 -26l221 -347 q6 -9 6 -24q0 -17 -12 -29t-29 -12h-330q-14 0 -24 10l-297 356q-12 12 -12 31zM666 1929l227 -274h233l-174 274h-286z" />
<glyph unicode="&#xda;" horiz-adv-x="1779" d="M102 1393q0 18 12.5 29.5t32.5 11.5h748q19 0 31 -12t12 -29q0 -19 -12 -30t-31 -11h-92v-899q0 -144 77 -237t205 -93q156 0 246 111.5t90 277.5v840h-188q-18 0 -29.5 10.5t-11.5 30.5q0 18 11.5 29.5t29.5 11.5h440q19 0 31 -12t12 -29q0 -41 -41 -41h-170v-840 q0 -135 -43 -235.5t-123.5 -162.5t-189 -92t-244.5 -30q-334 0 -503 145t-166 457v758h-89q-20 0 -32.5 11t-12.5 30zM319 594q0 -268 138.5 -393t439.5 -125h23q-94 51 -149.5 152.5t-55.5 224.5v899h-396v-758zM537 1614q0 15 6 24l221 347q17 26 43 26h397 q15 -1 26 -13.5t11 -27.5q0 -19 -12 -31l-297 -356q-10 -10 -25 -10h-329q-17 0 -29 12t-12 29zM651 1655h234l227 274h-287z" />
<glyph unicode="&#xdb;" horiz-adv-x="1779" d="M102 1393q0 18 12.5 29.5t32.5 11.5h748q19 0 31 -12t12 -29q0 -19 -12 -30t-31 -11h-92v-899q0 -144 77 -237t205 -93q156 0 246 111.5t90 277.5v840h-188q-18 0 -29.5 10.5t-11.5 30.5q0 18 11.5 29.5t29.5 11.5h440q19 0 31 -12t12 -29q0 -41 -41 -41h-170v-840 q0 -135 -43 -235.5t-123.5 -162.5t-189 -92t-244.5 -30q-334 0 -503 145t-166 457v758h-89q-20 0 -32.5 11t-12.5 30zM319 594q0 -268 138.5 -393t439.5 -125h23q-94 51 -149.5 152.5t-55.5 224.5v899h-396v-758zM424 1614q0 15 6 24l221 347q17 26 43 26h430q26 0 43 -26 l222 -347q6 -9 6 -24q0 -17 -12 -29t-29 -12h-330q-15 0 -25 10l-90 109l-90 -109q-10 -10 -24 -10h-330q-17 0 -29 12t-12 29zM539 1655h233l102 123q14 14 35 14q20 0 37 -20l101 -117h233l-174 274h-393z" />
<glyph unicode="&#xdc;" horiz-adv-x="1779" d="M102 1393q0 18 12.5 29.5t32.5 11.5h748q19 0 31 -12t12 -29q0 -19 -12 -30t-31 -11h-92v-899q0 -144 77 -237t205 -93q156 0 246 111.5t90 277.5v840h-188q-18 0 -29.5 10.5t-11.5 30.5q0 18 11.5 29.5t29.5 11.5h440q19 0 31 -12t12 -29q0 -41 -41 -41h-170v-840 q0 -135 -43 -235.5t-123.5 -162.5t-189 -92t-244.5 -30q-334 0 -503 145t-166 457v758h-89q-20 0 -32.5 11t-12.5 30zM319 594q0 -268 138.5 -393t439.5 -125h23q-94 51 -149.5 152.5t-55.5 224.5v899h-396v-758zM436 1731q0 91 63 154t152 63q91 0 154 -63t63 -154 q0 -89 -63 -152t-154 -63q-89 0 -152 63t-63 152zM514 1731q0 -58 40 -98t97 -40t97 40t40 98q0 56 -40 95.5t-97 39.5t-97 -39.5t-40 -95.5zM991 1731q0 91 63 154t152 63q91 0 154 -63t63 -154q0 -89 -63 -152t-154 -63q-89 0 -152 63t-63 152zM1069 1731q0 -58 40 -98 t97 -40t97 40t40 98q0 56 -40 95.5t-97 39.5t-97 -39.5t-40 -95.5z" />
<glyph unicode="&#xdd;" horiz-adv-x="1679" d="M8 1391q0 18 12.5 30.5t32.5 12.5h774q18 0 30.5 -12.5t12.5 -30.5t-12 -28.5t-31 -10.5h-108l354 -539l338 539h-147q-17 0 -29 11t-12 28q0 19 12 31t29 12h372q17 0 29 -12t12 -31q0 -39 -41 -39h-118l-394 -627v-643h109q17 0 28 -12t11 -31q0 -17 -12 -28t-29 -11 h-703q-17 0 -29 12t-12 29q0 18 11.5 29.5t29.5 11.5h127v483l-491 787h-111q-45 0 -45 39zM264 1352l471 -752q6 -9 6 -22v-496h295v627l-424 643h-348zM569 1614q0 15 6 24l222 347q17 26 43 26h397q15 -1 26 -13.5t11 -27.5q0 -19 -12 -31l-297 -356q-10 -10 -25 -10 h-330q-17 0 -29 12t-12 29zM684 1655h234l227 274h-287z" />
<glyph unicode="&#xde;" horiz-adv-x="1775" d="M115 39q0 19 12 31t29 12h114v1270h-100q-19 0 -31 11t-12 28q0 18 12.5 30.5t30.5 12.5h788q18 0 29.5 -11.5t11.5 -29.5t-12 -30t-29 -11h-129v-105l279 2q119 1 217.5 -26.5t174.5 -84t118.5 -151.5t42.5 -221q0 -84 -21 -153.5t-55.5 -117.5t-82 -84.5t-96.5 -58 t-105 -35t-100.5 -18t-88.5 -4.5h-283v-213h129q18 0 29.5 -11.5t11.5 -29.5t-12 -30t-29 -11h-802q-17 0 -29 11t-12 28zM356 82h389v1270h-389v-1270zM829 383q62 2 120 27.5t104.5 71.5t75 119t28.5 161q0 193 -88 300t-240 105v-784zM1055 381h69q33 0 68 3.5t81 14 t86.5 27t81.5 46.5t70 69.5t47.5 97.5t18.5 129q0 98 -33 173t-81.5 116.5t-115 67.5t-123 34t-116.5 8h-49q83 -39 132.5 -149t49.5 -246q0 -128 -47.5 -237t-138.5 -154z" />
<glyph unicode="&#xf7;" horiz-adv-x="1228" d="M143 655q0 15 11.5 28t31.5 13h865q16 0 25 -13.5t9 -27.5q0 -15 -9 -28t-25 -13h-865q-21 1 -32 13t-11 28zM360 254q0 107 74 181.5t180 74.5q107 0 181.5 -74.5t74.5 -181.5q0 -106 -74.5 -180t-181.5 -74q-106 0 -180 74t-74 180zM360 1053q0 107 74 181.5t180 74.5 q107 0 181.5 -74.5t74.5 -181.5q0 -106 -74.5 -180t-181.5 -74q-106 0 -180 74t-74 180zM440 252q0 -70 52 -122t122 -52q72 0 123 51.5t51 122.5q0 72 -51 123t-123 51q-71 0 -122.5 -51t-51.5 -123zM440 1051q0 -71 52 -122.5t122 -51.5q72 0 123 51.5t51 122.5 q0 72 -51 123t-123 51q-71 0 -122.5 -51t-51.5 -123z" />
<glyph unicode="&#x152;" horiz-adv-x="2250" d="M94 727q0 160 63 298t170 232.5t251 148.5t303 54q118 0 209 -26h1013q19 0 30 -13.5t11 -31.5v-310q0 -17 -12 -29t-29 -12q-19 0 -31 12t-12 29v273h-479v-609h176v179q0 19 13.5 31t33.5 12q17 0 29 -12t12 -31v-447q0 -18 -11.5 -30.5t-29.5 -14.5q-20 0 -33.5 12 t-13.5 31v182h-176v-573h504v289q0 18 12.5 30.5t30.5 12.5q17 0 29 -12t12 -31v-330q0 -18 -11.5 -29.5t-29.5 -11.5h-1045q-113 -25 -225 -25q-219 0 -392 91t-272.5 263t-99.5 398zM178 727q0 -288 167 -468t443 -202q-95 100 -149.5 306t-54.5 471q0 373 114 522 q-233 -55 -376.5 -225t-143.5 -404zM670 838q0 -206 34.5 -383t98.5 -285.5t143 -108.5q73 0 108 116.5t38 389.5q0 182 -28 363t-85 310.5t-129 129.5q-78 0 -129 -148.5t-51 -383.5zM1008 1352q82 -105 126 -329t42 -462q-2 -145 -21 -289.5t-47 -189.5h387v1270h-487z " />
<glyph unicode="&#x178;" horiz-adv-x="1679" d="M8 1391q0 18 12.5 30.5t32.5 12.5h774q18 0 30.5 -12.5t12.5 -30.5t-12 -28.5t-31 -10.5h-108l354 -539l338 539h-147q-17 0 -29 11t-12 28q0 19 12 31t29 12h372q17 0 29 -12t12 -31q0 -39 -41 -39h-118l-394 -627v-643h109q17 0 28 -12t11 -31q0 -17 -12 -28t-29 -11 h-703q-17 0 -29 12t-12 29q0 18 11.5 29.5t29.5 11.5h127v483l-491 787h-111q-45 0 -45 39zM264 1352l471 -752q6 -9 6 -22v-496h295v627l-424 643h-348zM387 1731q0 91 63 154t152 63q91 0 154 -63t63 -154q0 -89 -63 -152t-154 -63q-89 0 -152 63t-63 152zM465 1731 q0 -58 40 -98t97 -40t97 40t40 98q0 56 -40 95.5t-97 39.5t-97 -39.5t-40 -95.5zM942 1731q0 91 63 154t152 63q91 0 154 -63t63 -154q0 -89 -63 -152t-154 -63q-89 0 -152 63t-63 152zM1020 1731q0 -58 40 -98t97 -40t97 40t40 98q0 56 -40 95.5t-97 39.5t-97 -39.5 t-40 -95.5z" />
<glyph unicode="&#x2c6;" horiz-adv-x="1175" d="M102 1204q0 14 7 25l221 346q18 27 43 27h430q25 0 43 -27l221 -346q6 -9 6 -25q0 -17 -12 -29t-29 -12h-330q-13 0 -24 11l-90 108l-90 -108q-11 -11 -25 -11h-330q-17 0 -29 12t-12 29zM217 1245h234l102 123q14 14 35 14q20 0 37 -20l100 -117h233l-174 275h-393z" />
<glyph unicode="&#x2000;" horiz-adv-x="1005" />
<glyph unicode="&#x2001;" horiz-adv-x="2011" />
<glyph unicode="&#x2002;" horiz-adv-x="1005" />
<glyph unicode="&#x2003;" horiz-adv-x="2011" />
<glyph unicode="&#x2004;" horiz-adv-x="670" />
<glyph unicode="&#x2005;" horiz-adv-x="502" />
<glyph unicode="&#x2006;" horiz-adv-x="335" />
<glyph unicode="&#x2007;" horiz-adv-x="335" />
<glyph unicode="&#x2008;" horiz-adv-x="251" />
<glyph unicode="&#x2009;" horiz-adv-x="402" />
<glyph unicode="&#x200a;" horiz-adv-x="111" />
<glyph unicode="&#x2010;" d="M143 614q0 15 11.5 28t31.5 13h742q16 0 25.5 -13.5t9.5 -27.5q0 -15 -9.5 -28t-25.5 -13h-742q-21 1 -32 13t-11 28z" />
<glyph unicode="&#x2011;" d="M143 614q0 15 11.5 28t31.5 13h742q16 0 25.5 -13.5t9.5 -27.5q0 -15 -9.5 -28t-25.5 -13h-742q-21 1 -32 13t-11 28z" />
<glyph unicode="&#x2012;" d="M143 614q0 15 11.5 28t31.5 13h742q16 0 25.5 -13.5t9.5 -27.5q0 -15 -9.5 -28t-25.5 -13h-742q-21 1 -32 13t-11 28z" />
<glyph unicode="&#x2013;" horiz-adv-x="1309" d="M143 614q0 15 14.5 28t39.5 13h926q20 0 32 -13.5t12 -27.5q0 -15 -12 -28t-32 -13h-926q-27 1 -40.5 13t-13.5 28z" />
<glyph unicode="&#x2014;" horiz-adv-x="2333" d="M143 614q0 15 28.5 28t78.5 13h1854q40 0 63.5 -13.5t23.5 -27.5q0 -15 -23.5 -28t-63.5 -13h-1854q-52 1 -79.5 13t-27.5 28z" />
<glyph unicode="&#x2018;" horiz-adv-x="669" d="M80 997q0 52 1 86.5t5.5 87t13 88.5t25.5 79t41 72t60.5 53.5t82.5 35.5q55 14 170 14q19 0 31 -11t12 -29q0 -19 -12 -30t-31 -11q-108 0 -153 -11q-147 -38 -162 -258q22 34 71 54t99 20q104 0 178 -74t74 -178q0 -106 -74 -180t-178 -74q-105 0 -179.5 75t-74.5 191z M162 987q0 -72 50 -122t122 -50q71 0 121.5 50t50.5 122q0 71 -51 121.5t-121 50.5q-72 0 -122 -50.5t-50 -121.5z" />
<glyph unicode="&#x2019;" horiz-adv-x="669" d="M82 1235q0 106 74 180t178 74q105 0 179.5 -75t74.5 -191q0 -52 -1 -86.5t-5.5 -87t-13.5 -88.5t-26 -79t-41 -72t-60.5 -53.5t-82.5 -35.5q-55 -14 -170 -14q-19 0 -31 11t-12 30q0 18 12 29t31 11q109 0 154 11q147 38 162 258q-22 -34 -71 -54t-99 -20q-104 0 -178 74 t-74 178zM162 1233q0 -71 51 -121.5t121 -50.5q72 0 122 50.5t50 121.5q0 72 -50 122t-122 50q-71 0 -121.5 -50t-50.5 -122z" />
<glyph unicode="&#x201a;" horiz-adv-x="669" d="M82 252q0 106 74 180t178 74q105 0 179.5 -75t74.5 -191q0 -52 -1 -86.5t-5.5 -87t-13.5 -88.5t-26 -79t-41 -72t-60.5 -53.5t-82.5 -35.5q-55 -14 -170 -14q-19 0 -31 11t-12 29q0 19 12 30t31 11q109 0 154 11q147 38 162 258q-22 -34 -71 -54t-99 -20q-104 0 -178 74 t-74 178zM162 250q0 -70 51 -121t121 -51q72 0 122 50.5t50 121.5q0 72 -50 122t-122 50q-71 0 -121.5 -50t-50.5 -122z" />
<glyph unicode="&#x201c;" horiz-adv-x="1282" d="M80 997q0 52 1 86.5t5.5 87t13 88.5t25.5 79t41 72t60.5 53.5t82.5 35.5q55 14 170 14q19 0 31 -11t12 -29q0 -19 -12 -30t-31 -11q-108 0 -153 -11q-147 -38 -162 -258q22 34 71 54t99 20q104 0 178 -74t74 -178q0 -106 -74 -180t-178 -74q-105 0 -179.5 75t-74.5 191z M162 987q0 -72 50 -122t122 -50q71 0 121.5 50t50.5 122q0 71 -51 121.5t-121 50.5q-72 0 -122 -50.5t-50 -121.5zM692 997q0 52 1 86.5t5.5 87t13.5 88.5t26 79t41 72t60.5 53.5t82.5 35.5q55 14 170 14q19 0 31 -11t12 -29q0 -19 -12 -30t-31 -11q-109 0 -154 -11 q-147 -38 -162 -258q22 34 71 54t99 20q104 0 178 -74t74 -178q0 -106 -74 -180t-178 -74q-105 0 -179.5 75t-74.5 191zM774 987q0 -72 50 -122t122 -50q71 0 121.5 50t50.5 122q0 71 -51 121.5t-121 50.5q-72 0 -122 -50.5t-50 -121.5z" />
<glyph unicode="&#x201d;" horiz-adv-x="1282" d="M82 1235q0 106 74 180t178 74q105 0 179.5 -75t74.5 -191q0 -52 -1 -86.5t-5.5 -87t-13.5 -88.5t-26 -79t-41 -72t-60.5 -53.5t-82.5 -35.5q-55 -14 -170 -14q-19 0 -31 11t-12 30q0 18 12 29t31 11q109 0 154 11q147 38 162 258q-22 -34 -71 -54t-99 -20q-104 0 -178 74 t-74 178zM162 1233q0 -71 51 -121.5t121 -50.5q72 0 122 50.5t50 121.5q0 72 -50 122t-122 50q-71 0 -121.5 -50t-50.5 -122zM694 1235q0 106 74 180t178 74q105 0 179.5 -75t74.5 -191q0 -52 -1 -86.5t-5.5 -87t-13 -88.5t-25.5 -79t-41 -72t-60.5 -53.5t-82.5 -35.5 q-55 -14 -170 -14q-19 0 -31 11t-12 30q0 18 12 29t31 11q108 0 153 11q147 38 162 258q-22 -34 -71 -54t-99 -20q-104 0 -178 74t-74 178zM774 1233q0 -71 51 -121.5t121 -50.5q72 0 122 50.5t50 121.5q0 72 -50 122t-122 50q-71 0 -121.5 -50t-50.5 -122z" />
<glyph unicode="&#x201e;" horiz-adv-x="1282" d="M82 252q0 106 74 180t178 74q105 0 179.5 -75t74.5 -191q0 -52 -1 -86.5t-5.5 -87t-13.5 -88.5t-26 -79t-41 -72t-60.5 -53.5t-82.5 -35.5q-55 -14 -170 -14q-19 0 -31 11t-12 29q0 19 12 30t31 11q109 0 154 11q147 38 162 258q-22 -34 -71 -54t-99 -20q-104 0 -178 74 t-74 178zM162 250q0 -70 51 -121t121 -51q72 0 122 50.5t50 121.5q0 72 -50 122t-122 50q-71 0 -121.5 -50t-50.5 -122zM694 252q0 106 74 180t178 74q105 0 179.5 -75t74.5 -191q0 -52 -1 -86.5t-5.5 -87t-13 -88.5t-25.5 -79t-41 -72t-60.5 -53.5t-82.5 -35.5 q-55 -14 -170 -14q-19 0 -31 11t-12 29q0 19 12 30t31 11q108 0 153 11q147 38 162 258q-22 -34 -71 -54t-99 -20q-104 0 -178 74t-74 178zM774 250q0 -70 51 -121t121 -51q72 0 122 50.5t50 121.5q0 72 -50 122t-122 50q-71 0 -121.5 -50t-50.5 -122z" />
<glyph unicode="&#x2026;" horiz-adv-x="2009" d="M82 254q0 107 74 181.5t180 74.5q107 0 181.5 -74.5t74.5 -181.5q0 -106 -74.5 -180t-181.5 -74q-106 0 -180 74t-74 180zM162 252q0 -70 52 -122t122 -52q72 0 123 51.5t51 122.5q0 72 -51 123t-123 51q-71 0 -122.5 -51t-51.5 -123zM752 254q0 107 74 181.5t180 74.5 q107 0 181.5 -74.5t74.5 -181.5q0 -106 -74.5 -180t-181.5 -74q-106 0 -180 74t-74 180zM831 252q0 -70 52 -122t123 -52q72 0 123 51.5t51 122.5q0 72 -51 123t-123 51q-71 0 -123 -51t-52 -123zM1421 254q0 107 74 181.5t180 74.5q107 0 181.5 -74.5t74.5 -181.5 q0 -106 -74.5 -180t-181.5 -74q-106 0 -180 74t-74 180zM1501 252q0 -70 51.5 -122t122.5 -52q72 0 123 51.5t51 122.5q0 72 -51 123t-123 51q-71 0 -122.5 -51t-51.5 -123z" />
<glyph unicode="&#x202f;" horiz-adv-x="402" />
<glyph unicode="&#x205f;" horiz-adv-x="502" />
<glyph unicode="&#xe000;" horiz-adv-x="1024" d="M0 0z" />
</font>
</defs>
</svg>
